<?xml version="1.0" encoding="utf-8"?>
<!-- Generator: Adobe Illustrator 25.4.1, SVG Export Plug-In . SVG Version: 6.00 Build 0)  -->
<svg version="1.1" id="Capa_1" xmlns="http://www.w3.org/2000/svg" xmlns:xlink="http://www.w3.org/1999/xlink" x="0px" y="0px"
	 viewBox="0 0 200 200" style="enable-background:new 0 0 200 200;" xml:space="preserve">
<style type="text/css">
	.st0{fill:#FFFFFF;}
	.st1{fill:#FFFFFF;stroke:#FFFFFF;stroke-width:9;stroke-linecap:round;stroke-linejoin:round;stroke-miterlimit:10;}
</style>
<g>
	<path class="st0" d="M98.5,140.3c-6.7,0-11.8-9.6-23.9-32.8c-3.1-5.9-6.6-12.7-10.8-20.3c-0.5-1-0.4-2.1,0.4-2.9
		c0.5-0.5,1.1-0.8,1.8-0.8c0.4,0,0.7,0.1,1.1,0.3C83,91.6,91.5,95,100,95c8.5,0,17-3.5,32.9-11.3c0.4-0.2,0.7-0.3,1.1-0.3
		c0.7,0,1.4,0.3,1.9,0.8c0.7,0.8,0.8,2.1,0.2,3c-7.4,11.5-13,21.2-17.6,28.9C108.9,132.8,104.5,140.3,98.5,140.3z"/>
	<path class="st0" d="M134,86L134,86 M134,86c-21.5,33.5-28.5,51.8-35.5,51.8c-6.7,0-13.4-16.4-32.5-51.8
		c15.7,7.7,24.8,11.5,34,11.5C109.2,97.5,118.3,93.7,134,86 M134,81c-0.2,0-0.3,0-0.5,0c-0.6,0.1-1.2,0.2-1.8,0.5
		c-15.5,7.6-23.7,11-31.7,11c-8,0-16.2-3.4-31.8-11C67.5,81.2,66.7,81,66,81c-1.3,0-2.6,0.5-3.6,1.5c-1.5,1.6-1.8,3.9-0.8,5.8
		c4.1,7.6,7.6,14.4,10.7,20.3c13,24.8,17.9,34.1,26.1,34.1c7.5,0,12.1-7.9,22.2-25.2c4.5-7.7,10.1-17.4,17.4-28.7
		C138.7,88,139,87,139,86c0-2.7-2.2-4.9-4.9-5C134.1,81,134,81,134,81L134,81z M134,91L134,91L134,91L134,91z"/>
</g>
<path class="st1" d="M61.9,61.5c38.5,23.3,37.7,24.2,76.1,0C138.1,61.5,61.9,61.5,61.9,61.5z"/>
</svg>
